<mxfile host="app.diagrams.net" modified="2023-08-04T12:34:03.025Z" agent="Mozilla/5.0 (Macintosh; Intel Mac OS X 10_15_7) AppleWebKit/537.36 (KHTML, like Gecko) Chrome/115.0.0.0 Safari/537.36" version="21.6.6" etag="r9MdD_8dGF8tXTs9wPKN" type="github">
  <diagram name="Page-1" id="f4L0yiD5o9vZL-jdM-RA">
    <mxGraphModel>
      <root>
        <mxCell id="0" />
        <mxCell id="1" parent="0" />
      </root>
    </mxGraphModel>
  </diagram>
</mxfile>
